<?xml version="1.0" encoding="UTF-8"?>
<svg version="1.1" viewBox="0 0 2048 657" width="1280" height="1280" xmlns="http://www.w3.org/2000/svg">
<path transform="translate(0)" d="m0 0h2048v657h-2048z"/>
<path transform="translate(237,158)" d="m0 0 15 1 17 5 19 8 15 9h6l10-7 14-8 24-7 26-1 20 3 16 6 18 10 13 11 3 2v2h2l9 11 8 14 8 21 3 9 3 24-3 22-6 16-12 24-3 4 2 5 7 10 8 16 4 11 2 16v13l-1 16-3 13-6 15-12 18-10 12-8 7-10 8-18 10-23 7-7 1h-26l-17-5-13-4-16-9-6-4-5 1-5 4-16 9-14 5-21 3h-17l-14-2-20-6-8-4-10-4-9-8-8-7-12-13-7-11-8-16-4-10-2-8-1-10v-18l2-16 4-11 8-18 8-16-10-19-4-7-3-8-3-9-3-14v-20l4-20 6-16 9-16 7-9 9-10 9-8 20-12 16-7 15-3z" fill="#190231"/>
<path transform="translate(369,321)" d="m0 0h17l10 2 18 6 15 9v2l4 2 6 5v2l3 1v2l4 2 7 11 5 17 2 15v13l-1 15-3 12-8 16-9 12-11 9-10 7-12 6-16 4h-26l-25-8-12-7-1-6 7-9 6-15 5-15 2-22-1-23-2-10-4-13-7-13-3-4v-9l5-4 17-8 11-3z"/>
<path transform="translate(607,252)" d="m0 0h50l15 3 15 6 11 8 8 8 9 14 5 13 1 6v23l-3 12-5 12-8 11-9 9-12 8-13 5-10 2-37 1-41-1-1-1v-136l1-2z"/>
<path transform="translate(355,185)" d="m0 0h35l16 4 12 5 11 8 15 14 9 14 5 15 2 15v19l-2 14-12 26-4 1-10-7-14-7-13-5-15-3h-24l-15 2-16 5-11 6-12 7-5 1-8-16-5-12-3-13v-23l8-26 6-10 9-10 15-12 11-6 8-4z"/>
<path transform="translate(304,355)" d="m0 0 4 1 7 10 3 10 5 15 1 10-2 21-6 17-8 15-8 10-7 7-11 7-16 8-7 2-14 3h-16l-15-3-15-5-11-7-17-16-9-14-7-18-1-4v-20l2-23 5-13 6-10 4-1 14 7 11 5 20 7 21 1 17-1 15-3 15-5 12-5 5-6z"/>
<path transform="translate(832,252)" d="m0 0h61l14 3 12 5 11 7 7 6 9 13 6 13 3 13 1 6v11l-3 14-5 12-7 11-6 7-14 10-11 5-17 4h-75l-1-36v-103z"/>
<path transform="translate(229,185)" d="m0 0h30l12 5 15 8 1 5-9 15-5 11-5 16-1 9v27l4 19 9 21 5 9 1 7-3 3-12 7-17 5-7 1h-22l-10-2-11-3-18-11-15-15-10-14-4-9-3-15-1-16v-11l4-15 9-19 7-9 14-14 13-8 11-4 8-2z"/>
<path transform="translate(1341,243)" d="m0 0h19l17 3 18 6 19 10 15 12 1 2v6l-4 1-5-3-15-11-17-9-17-5-12-2h-14l-18 3-19 7-11 6-13 10-8 8-10 14-8 17-4 14-1 6v28l3 15 5 13 7 13 10 13 8 8 16 10 14 7 20 5 10 1h9l15-2 14-4 14-6 15-10 10-9 4-6 1-57h-69l-5-2v-7l2-2h45l39 1v68l-1 43-1 3-4 1-5-2-1-3-1-22-19 12-15 7-20 6-13 2h-14l-19-2-16-5-16-8-11-7-10-8-10-10-9-13-6-12-5-16-3-16v-25l4-23 7-16 7-11 7-9 11-11 16-11 21-10 19-5z" fill="#901F68"/>
<path transform="translate(807,243)" d="m0 0h73l16 1 16 4 12 5 11 7 10 9 8 10 9 17 4 16v20l-4 18-8 16-12 14-12 9-16 8-17 5-9 1 2 5 13 13 7 8 13 13 8 7 4 6v5l-1 1h-6l-8-7-50-50-15-1h-37l-2 56-3 3-6-1-1-1v-216zm25 9-15 1v103l1 36h75l17-4 14-7 13-10 9-12 6-13 3-10 1-7v-11l-3-16-5-12-7-12-7-8-13-9-11-5-11-3-6-1z" fill="#901F68"/>
<path transform="translate(575,243)" d="m0 0h73l20 2 18 6 11 6 10 8 11 11 8 14 5 15 1 7v17l-3 16-7 16-9 13-11 11-11 7-11 5-16 4-8 1h-73l-1 57-1 2-5 1-4-2-1-2v-70l1-141 1-3zm32 9-24 1-1 2v136l1 1 47 1 31-1 16-4 12-6 10-8 8-8 7-11 6-16 1-6v-23l-3-12-7-14-8-10-7-7-11-7-13-5-15-3z" fill="#901F68"/>
<path transform="translate(1101,264)" d="m0 0h2l7 16 15 35 15 34 9 23v5h-96l-1-3 6-16 18-41 11-26 13-26z"/>
<path transform="translate(1598,265)" d="m0 0 3 1 13 32 11 24 14 32 6 15 1 7-1 1h-96l1-7 17-39 13-30 11-24 6-11z"/>
<path transform="translate(1597,242)" d="m0 0 4 1 5 8 9 20 10 25 11 24 26 64 14 32 11 26 5 15-1 4-4 1-5-3-16-38-9-21-5-11v-2l-109 1-12 27-13 30-8 15-5 1-2-2 1-7 5-13 15-35 12-27 16-38 13-29 13-30 12-28 5-8zm1 23-5 8-12 25-11 26-17 39-4 10v4h96l1-2-2-8-8-20-26-58-9-23z" fill="#901F68"/>
<path transform="translate(1101,241)" d="m0 0 5 5 11 23 11 27 12 27 15 37 13 30 15 35 8 19 4 11v6l-4 1-5-3-8-16-16-39-7-16-34-1h-64l-11 1-12 27-13 30-8 16-6-1-1-4 10-26 18-40 15-35 18-41 23-54 8-16zm0 23-10 19-9 19-10 24-11 25-8 20-1 5 1 1h96l-1-8-12-29-12-27-14-33-7-16z" fill="#901F68"/>
<path transform="translate(1706,243)" d="m0 0h186l1 1v8h-87v154l-1 55h-10l-1-1v-207h-72l-15-1-2-3z" fill="#901F68"/>
<path transform="translate(383,196)" d="m0 0 14 3 11 4 4 8 2 8 1 9 21 6 5 3 5 12 2 6v5l-7-1-15-5-17-2h-10l-18 3-10 3-13 7-13 10-9 10-7 8-14 9h-6l-3-8 1-7 9-13 11-12 5-5 10-9 13-8 13-5 23-7v-7l-8-21z" fill="#901F68"/>
<path transform="translate(349,337)" d="m0 0h7l11 7 11 9 9 8 8 10 8 14 7 15 6 20 5 1 12-3 13-5h2v8l-5 13-4 5-16 5-7 2-7 23-1 2-19 7-5-1 1-7 6-16 1-7v-23l-5-19-8-16-8-11-5-5-9-8-7-6-7-13-2-5z" fill="#901F68"/>
<path transform="translate(227,196)" d="m0 0h5l-2 6-4 10-4 17v26l3 12 5 12 7 11 9 11 15 13 7 8 4 7v5l-9 4-6-2-10-6-10-8-8-7-11-12-9-16-6-16-5-18-9 1-15 5-5 2h-4l1-5 4-14 4-6 12-5 12-2 4-16 4-9 10-5z" fill="#901F68"/>
<path transform="translate(299,373)" d="m0 0h5l3 9-2 8-9 12-10 12-11 9-10 7-15 7-27 9 1 10 4 12 3 7v3l-8-1-13-4-5-4-5-15-2-8-16-4-8-4-4-5-5-14v-6l5 1 21 7 15 2h11l20-4 12-5 14-9 12-12 9-12z" fill="#901F68"/>
<path transform="translate(1961,243)" d="m0 0h7l2 2 1 18v185l-1 10-2 3h-7l-1-2v-215z" fill="#901F68"/>
<path transform="translate(295,132)" d="m0 0h20l19 3 13 5 11 6 1 3-2 1-12 2-13 4h-8l-7-1h-19l-4 1h-13l-14-5-11-1-3-1 2-4 16-8 17-4z" fill="#901F68"/>
<path transform="translate(282,518)" d="m0 0h8l5 1h26l3-1h7l17 5 14 3v3l-30 10-16 3h-23l-21-5-16-6-4-2v-2l21-6z" fill="#901F68"/>
<path transform="translate(116,281)" d="m0 0 2 1 5 24 2 7v9l-1 19v22l-6 27h-3l-5-10-5-15-3-18v-23l3-16 5-15z" fill="#901F68"/>
<path transform="translate(495,282)" d="m0 0h2l10 21 4 16 1 9v16l-2 16-5 15-8 16h-2l-2-15-4-15v-7l1-4v-20l-1-8v-9l4-18z" fill="#901F68"/>
</svg>
